<svg width="49" height="49" viewBox="0 0 49 49" fill="none" xmlns="http://www.w3.org/2000/svg">
<g filter="url(#filter0_d)">
<rect x="5.67236" y="1.23975" width="38" height="38" rx="19" fill="url(#paint0_linear)"/>
<path d="M21.3396 20.2397C21.3396 18.3989 22.8315 16.9061 24.6724 16.9061C26.5132 16.9061 28.006 18.3989 28.006 20.2397C28.006 22.0806 26.5132 23.5733 24.6724 23.5733C22.8315 23.5733 21.3396 22.0806 21.3396 20.2397ZM19.5375 20.2397C19.5375 23.0757 21.8364 25.3746 24.6724 25.3746C27.5084 25.3746 29.8072 23.0757 29.8072 20.2397C29.8072 17.4037 27.5084 15.1049 24.6724 15.1049C21.8364 15.1049 19.5375 17.4037 19.5375 20.2397ZM28.8105 14.9013C28.8104 15.1386 28.8807 15.3706 29.0125 15.568C29.1443 15.7654 29.3316 15.9193 29.5509 16.0102C29.7701 16.1011 30.0114 16.125 30.2442 16.0788C30.477 16.0326 30.6908 15.9184 30.8587 15.7506C31.0266 15.5829 31.141 15.3691 31.1874 15.1363C31.2338 14.9036 31.2101 14.6623 31.1194 14.443C31.0286 14.2237 30.8749 14.0362 30.6776 13.9042C30.4803 13.7723 30.2483 13.7018 30.011 13.7017H30.0105C29.6924 13.7019 29.3873 13.8283 29.1623 14.0532C28.9373 14.2781 28.8108 14.5831 28.8105 14.9013ZM20.6324 28.3795C19.6574 28.3351 19.1275 28.1727 18.7753 28.0355C18.3084 27.8537 17.9753 27.6373 17.6251 27.2875C17.2748 26.9377 17.058 26.6049 16.8771 26.1381C16.7398 25.7861 16.5774 25.256 16.5331 24.281C16.4846 23.2269 16.4749 22.9103 16.4749 20.2398C16.4749 17.5693 16.4854 17.2536 16.5331 16.1986C16.5775 15.2237 16.7411 14.6946 16.8771 14.3416C17.0588 13.8747 17.2753 13.5416 17.6251 13.1913C17.9748 12.8411 18.3076 12.6243 18.7753 12.4433C19.1273 12.3061 19.6574 12.1437 20.6324 12.0993C21.6864 12.0509 22.0031 12.0412 24.6724 12.0412C27.3416 12.0412 27.6586 12.0517 28.7136 12.0993C29.6885 12.1437 30.2176 12.3073 30.5706 12.4433C31.0375 12.6243 31.3706 12.8416 31.7208 13.1913C32.0711 13.5411 32.2871 13.8747 32.4688 14.3416C32.6061 14.6936 32.7685 15.2237 32.8128 16.1986C32.8613 17.2536 32.871 17.5693 32.871 20.2398C32.871 22.9103 32.8613 23.2261 32.8128 24.281C32.7684 25.256 32.6052 25.7859 32.4688 26.1381C32.2871 26.6049 32.0706 26.9381 31.7208 27.2875C31.3711 27.6369 31.0375 27.8537 30.5706 28.0355C30.2186 28.1728 29.6885 28.3352 28.7136 28.3795C27.6595 28.428 27.3428 28.4377 24.6724 28.4377C22.0019 28.4377 21.6861 28.428 20.6324 28.3795ZM20.5496 10.3003C19.485 10.3488 18.7576 10.5176 18.1223 10.7648C17.4644 11.0201 16.9074 11.3625 16.3508 11.9182C15.7943 12.4739 15.4527 13.0317 15.1974 13.6897C14.9502 14.3253 14.7814 15.0524 14.7329 16.1169C14.6836 17.1832 14.6724 17.5241 14.6724 20.2397C14.6724 22.9554 14.6836 23.2963 14.7329 24.3625C14.7814 25.4272 14.9502 26.1541 15.1974 26.7898C15.4527 27.4473 15.7944 28.0058 16.3508 28.5613C16.9073 29.1167 17.4644 29.4587 18.1223 29.7147C18.7588 29.9619 19.485 30.1307 20.5496 30.1792C21.6164 30.2277 21.9567 30.2397 24.6724 30.2397C27.388 30.2397 27.7289 30.2285 28.7952 30.1792C29.8598 30.1307 30.5868 29.9619 31.2224 29.7147C31.88 29.4587 32.4373 29.1169 32.9939 28.5613C33.5504 28.0056 33.8913 27.4473 34.1473 26.7898C34.3945 26.1541 34.5641 25.4271 34.6118 24.3625C34.6603 23.2955 34.6716 22.9554 34.6716 20.2397C34.6716 17.5241 34.6603 17.1832 34.6118 16.1169C34.5633 15.0523 34.3945 14.3249 34.1473 13.6897C33.8913 13.0321 33.5496 12.4748 32.9939 11.9182C32.4382 11.3617 31.88 11.0201 31.2232 10.7648C30.5868 10.5176 29.8597 10.348 28.796 10.3003C27.7297 10.2518 27.3888 10.2397 24.6732 10.2397C21.9575 10.2397 21.6164 10.251 20.5496 10.3003Z" fill="white"/>
</g>
<defs>
<filter id="filter0_d" x="0.672363" y="0.239746" width="48" height="48" filterUnits="userSpaceOnUse" color-interpolation-filters="sRGB">
<feFlood flood-opacity="0" result="BackgroundImageFix"/>
<feColorMatrix in="SourceAlpha" type="matrix" values="0 0 0 0 0 0 0 0 0 0 0 0 0 0 0 0 0 0 127 0" result="hardAlpha"/>
<feOffset dy="4"/>
<feGaussianBlur stdDeviation="2.5"/>
<feColorMatrix type="matrix" values="0 0 0 0 0 0 0 0 0 0 0 0 0 0 0 0 0 0 0.16 0"/>
<feBlend mode="normal" in2="BackgroundImageFix" result="effect1_dropShadow"/>
<feBlend mode="normal" in="SourceGraphic" in2="effect1_dropShadow" result="shape"/>
</filter>
<linearGradient id="paint0_linear" x1="-15.904" y1="-62.0387" x2="-144.16" y2="-16.5186" gradientUnits="userSpaceOnUse">
<stop stop-color="#EEDCD6"/>
<stop offset="1" stop-color="#EC74E7"/>
</linearGradient>
</defs>
</svg>
