<svg width="332" height="348" viewBox="0 0 332 348" fill="none" xmlns="http://www.w3.org/2000/svg">
<rect width="331.187" height="347.477" fill="white"/>
<rect x="23" y="23" width="285.906" height="302.194" fill="#EEDCD6" fill-opacity="0.31"/>
<path d="M81.1435 257.913V317.191C81.1435 319.521 80.3768 321.453 78.9351 322.847C77.4965 324.303 75.615 324.997 73.3058 324.997C70.9722 324.997 68.9807 324.3 67.4382 322.847C65.7858 321.453 65.0252 319.521 65.0252 317.191V257.913H42.8377L65.9232 179.877H61.9524C59.4203 188.625 57.2883 195.66 55.6175 201.243C54.1147 206.799 52.447 212.073 50.9992 217.149C49.3528 222.16 48.2471 225.334 48.1372 226.417C47.1323 229.728 44.9422 231.333 41.509 231.333L39.7619 230.911C36.5608 229.725 35 227.652 35 224.698C35 223.891 35.113 223.228 35.4368 222.561C35.6659 221.989 36.3287 220.029 37.1045 216.703C37.9964 213.403 39.1938 209.3 40.6385 204.53C42.0771 199.684 43.6349 194.437 45.266 188.808C46.9337 183.148 48.4609 177.703 50.3364 172.453C51.4421 168.432 53.8704 164.766 57.6273 161.598C61.369 158.315 65.2604 156.819 69.3228 156.819H96.4799C100.68 156.819 104.76 158.315 108.404 161.598C111.948 164.781 114.495 168.429 115.915 172.453C117.436 177.703 118.991 183.148 120.528 188.808C122.101 194.437 123.753 199.684 125.082 204.53C126.49 209.303 127.724 213.403 128.591 216.703C129.471 220.029 130.039 221.989 130.348 222.561L130.781 224.31C130.781 227.881 129.114 229.97 125.919 230.887L124.291 231.333C120.772 231.333 118.557 229.725 117.678 226.417C117.433 225.334 116.444 222.157 115.139 217.149C113.597 212.073 112.024 206.802 110.262 201.243C108.496 195.679 106.425 188.625 103.896 179.862H99.91L122.962 257.916H101.129V317.194C101.129 319.524 100.466 321.456 98.7005 322.85C97.1427 324.306 95.2673 325 92.9673 325C90.539 325 88.7521 324.303 87.2341 322.85C85.7954 321.456 85.1448 319.524 85.1448 317.194V257.913H81.1435ZM83.3274 151.939C87.9763 151.939 91.9623 150.411 95.0534 147.222C98.2392 143.959 99.907 139.905 99.907 135.013C99.907 130.359 98.2392 126.369 95.0534 123.076C91.9776 119.688 87.9763 118 83.3274 118C78.3762 118 74.271 119.688 70.8561 123.076C67.5482 126.353 65.9201 130.359 65.9201 135.013C65.9201 139.905 67.5482 143.956 70.8714 147.222C74.2893 150.411 78.3915 151.939 83.3274 151.939Z" fill="#C4C4C4" fill-opacity="0.78"/>
<path d="M137.146 162.767C141.192 158.517 145.984 156.315 151.579 156.315V156.334H187.09C192.912 156.334 197.655 158.517 201.615 162.785C205.675 167.21 207.64 172.396 207.64 178.135V231.332C207.64 233.329 206.925 235.129 205.796 236.588C204.546 238.028 202.879 238.679 200.678 238.679C198.802 238.679 197.078 238.028 195.59 236.588C194.34 235.129 193.745 233.325 193.745 231.332V183.761H189.966V315.466C189.966 318.004 189.162 320.346 187.406 322.15C185.533 324.147 183.447 325 181.068 325C178.269 325 175.979 324.144 174.209 322.15C172.451 320.346 171.514 318.001 171.514 315.466V239.12H167.468V315.466C167.468 318.004 166.618 320.346 164.744 322.15C162.974 324.147 160.802 325 158.095 325C155.596 325 153.423 324.144 151.564 322.15C149.585 320.346 148.545 318.001 148.545 315.466V183.761H144.93V231.332C144.93 233.329 144.318 235.129 143.157 236.588C141.818 238.028 140.152 238.679 137.979 238.679C136.092 238.679 134.425 238.028 133.086 236.588C131.641 235.129 131 233.325 131 231.332V178.132C131 172.377 133.086 167.21 137.146 162.767Z" fill="#C4C4C4" fill-opacity="0.6"/>
<path d="M180.74 147.222C177.643 150.411 173.792 151.94 169.431 151.94C164.865 151.94 161.012 150.411 158.095 147.222C155.001 143.956 153.544 139.905 153.544 135.013C153.544 130.359 155.001 126.369 158.095 123.076C160.995 119.688 164.848 118 169.431 118C173.778 118 177.617 119.688 180.726 123.076C183.82 126.369 185.412 130.359 185.412 135.013C185.412 139.893 183.835 143.944 180.74 147.222Z" fill="#C4C4C4" fill-opacity="0.6"/>
<path d="M251.144 257.913V317.191C251.144 319.521 250.377 321.453 248.935 322.847C247.496 324.303 245.615 324.997 243.306 324.997C240.972 324.997 238.981 324.3 237.438 322.847C235.786 321.453 235.025 319.521 235.025 317.191V257.913H212.838L235.923 179.877H231.952C229.42 188.625 227.288 195.66 225.618 201.243C224.115 206.799 222.447 212.073 220.999 217.149C219.353 222.16 218.247 225.334 218.137 226.417C217.132 229.728 214.942 231.333 211.509 231.333L209.762 230.911C206.561 229.725 205 227.652 205 224.698C205 223.891 205.113 223.228 205.437 222.561C205.666 221.989 206.329 220.029 207.105 216.703C207.996 213.403 209.194 209.3 210.639 204.53C212.077 199.684 213.635 194.437 215.266 188.808C216.934 183.148 218.461 177.703 220.336 172.453C221.442 168.432 223.87 164.766 227.627 161.598C231.369 158.315 235.26 156.819 239.323 156.819H266.48C270.68 156.819 274.76 158.315 278.404 161.598C281.948 164.781 284.495 168.429 285.915 172.453C287.436 177.703 288.991 183.148 290.528 188.808C292.101 194.437 293.753 199.684 295.082 204.53C296.49 209.303 297.724 213.403 298.591 216.703C299.471 220.029 300.039 221.989 300.348 222.561L300.781 224.31C300.781 227.881 299.114 229.97 295.919 230.887L294.291 231.333C290.772 231.333 288.557 229.725 287.678 226.417C287.433 225.334 286.444 222.157 285.139 217.149C283.597 212.073 282.024 206.802 280.262 201.243C278.496 195.679 276.425 188.625 273.896 179.862H269.91L292.962 257.916H271.129V317.194C271.129 319.524 270.466 321.456 268.7 322.85C267.143 324.306 265.267 325 262.967 325C260.539 325 258.752 324.303 257.234 322.85C255.795 321.456 255.145 319.524 255.145 317.194V257.913H251.144ZM253.327 151.939C257.976 151.939 261.962 150.411 265.053 147.222C268.239 143.959 269.907 139.905 269.907 135.013C269.907 130.359 268.239 126.369 265.053 123.076C261.978 119.688 257.976 118 253.327 118C248.376 118 244.271 119.688 240.856 123.076C237.548 126.353 235.92 130.359 235.92 135.013C235.92 139.905 237.548 143.956 240.871 147.222C244.289 150.411 248.391 151.939 253.327 151.939Z" fill="#C4C4C4" fill-opacity="0.78"/>
</svg>
