<svg width="22" height="22" viewBox="0 0 22 22" fill="none" xmlns="http://www.w3.org/2000/svg">
<path d="M20.6103 16.1598V19.1598C20.6114 19.4383 20.5544 19.714 20.4428 19.9692C20.3312 20.2244 20.1676 20.4534 19.9624 20.6417C19.7571 20.83 19.5149 20.9733 19.251 21.0625C18.9872 21.1518 18.7077 21.1849 18.4303 21.1598C15.3531 20.8255 12.3973 19.774 9.80029 18.0898C7.38411 16.5545 5.33562 14.506 3.80029 12.0898C2.11026 9.48105 1.05853 6.51084 0.730285 3.41984C0.705295 3.14331 0.73816 2.8646 0.826785 2.60147C0.915411 2.33833 1.05786 2.09653 1.24505 1.89146C1.43225 1.6864 1.66009 1.52255 1.91408 1.41036C2.16806 1.29818 2.44263 1.2401 2.72029 1.23984H5.72029C6.20559 1.23507 6.67608 1.40692 7.04405 1.72338C7.41202 2.03983 7.65236 2.47929 7.72029 2.95984C7.84691 3.91991 8.08174 4.86257 8.42029 5.76984C8.55483 6.12777 8.58395 6.51676 8.50419 6.89072C8.42444 7.26469 8.23915 7.60795 7.97029 7.87984L6.70029 9.14984C8.12384 11.6534 10.1967 13.7263 12.7003 15.1498L13.9703 13.8798C14.2422 13.611 14.5854 13.4257 14.9594 13.3459C15.3334 13.2662 15.7224 13.2953 16.0803 13.4298C16.9876 13.7684 17.9302 14.0032 18.8903 14.1298C19.3761 14.1984 19.8197 14.443 20.1368 14.8173C20.454 15.1916 20.6225 15.6694 20.6103 16.1598Z" stroke="#EEDCD6" stroke-linecap="round" stroke-linejoin="round"/>
</svg>
